<svg width="48" height="48" viewBox="0 0 48 48" fill="none" xmlns="http://www.w3.org/2000/svg">
<circle cx="24" cy="24" r="24" fill="white"/>
<path d="M19 16V15C19 14.7348 19.1054 14.4804 19.2929 14.2929C19.4804 14.1054 19.7348 14 20 14H28C28.2652 14 28.5196 14.1054 28.7071 14.2929C28.8946 14.4804 29 14.7348 29 15V16H32C32 18.5 29.5 19.5 29 19.5V22H32C32 24.5 29.5 25.5 29 25.5V28H32C32 30.5 29.5 31.5 29 31.5V33C29 33.2652 28.8946 33.5196 28.7071 33.7071C28.5196 33.8946 28.2652 34 28 34H20C19.7348 34 19.4804 33.8946 19.2929 33.7071C19.1054 33.5196 19 33.2652 19 33V31.5C18.5 31.5 16 30.5 16 28H19V25.5C18.5 25.5 16 24.5 16 22H19V19.5C18.5 19.5 16 18.5 16 16H19ZM24 32C24.5304 32 25.0391 31.7893 25.4142 31.4142C25.7893 31.0391 26 30.5304 26 30C26 29.4696 25.7893 28.9609 25.4142 28.5858C25.0391 28.2107 24.5304 28 24 28C23.4696 28 22.9609 28.2107 22.5858 28.5858C22.2107 28.9609 22 29.4696 22 30C22 30.5304 22.2107 31.0391 22.5858 31.4142C22.9609 31.7893 23.4696 32 24 32ZM24 26C24.5304 26 25.0391 25.7893 25.4142 25.4142C25.7893 25.0391 26 24.5304 26 24C26 23.4696 25.7893 22.9609 25.4142 22.5858C25.0391 22.2107 24.5304 22 24 22C23.4696 22 22.9609 22.2107 22.5858 22.5858C22.2107 22.9609 22 23.4696 22 24C22 24.5304 22.2107 25.0391 22.5858 25.4142C22.9609 25.7893 23.4696 26 24 26ZM24 20C24.5304 20 25.0391 19.7893 25.4142 19.4142C25.7893 19.0391 26 18.5304 26 18C26 17.4696 25.7893 16.9609 25.4142 16.5858C25.0391 16.2107 24.5304 16 24 16C23.4696 16 22.9609 16.2107 22.5858 16.5858C22.2107 16.9609 22 17.4696 22 18C22 18.5304 22.2107 19.0391 22.5858 19.4142C22.9609 19.7893 23.4696 20 24 20Z" fill="#333333"/>
</svg>
