<svg width="48" height="48" viewBox="0 0 48 48" fill="none" xmlns="http://www.w3.org/2000/svg">
<circle cx="24" cy="24" r="24" fill="white"/>
<path d="M29 32H19V33C19 33.2652 18.8946 33.5196 18.7071 33.7071C18.5196 33.8946 18.2652 34 18 34H17C16.7348 34 16.4804 33.8946 16.2929 33.7071C16.1054 33.5196 16 33.2652 16 33V32H15V24H14V20H15V17C15 16.4696 15.2107 15.9609 15.5858 15.5858C15.9609 15.2107 16.4696 15 17 15H31C31.5304 15 32.0391 15.2107 32.4142 15.5858C32.7893 15.9609 33 16.4696 33 17V20H34V24H33V32H32V33C32 33.2652 31.8946 33.5196 31.7071 33.7071C31.5196 33.8946 31.2652 34 31 34H30C29.7348 34 29.4804 33.8946 29.2929 33.7071C29.1054 33.5196 29 33.2652 29 33V32ZM17 17V26H31V17H17ZM17 28V30H21V28H17ZM27 28V30H31V28H27Z" fill="black"/>
</svg>
